# xmcd
#
# Track frame offsets:
#	150
#	19675
#	35800
#	52552
#	71177
#	85057
#	104680
#	116712
#	136962
#	151180
#	169872
#
# Disc length: 2484 seconds
#
# Revision: 0
# Processed by: cddbd v1.5.2PL0 Copyright (c) Steve Scherf et al.
# Submitted via: audiograbber 1.82.02
#
DISCID=8e09b20b
DTITLE=Heidi Hauge - Country Rose
DYEAR=2001
DGENRE=Country
TTITLE0=Yellow Roses
TTITLE1=Banks of The Ohio
TTITLE2=Uten Deg
TTITLE3=Crystal Chandeliers
TTITLE4=She Never Spoke Spanish To Me
TTITLE5=Smokey Mountain Queen
TTITLE6=Should I Do It
TTITLE7=Der Elvene Møtes
TTITLE8=Much Too Young
TTITLE9=Angel With a Broken Wing
TTITLE10=I Don't Want Tonight To Be Over
EXTD=
EXTT0=
EXTT1=
EXTT2=
EXTT3=
EXTT4=
EXTT5=
EXTT6=
EXTT7=
EXTT8=
EXTT9=
EXTT10=
PLAYORDER=
